<svg height='300px' width='300px'  fill="#000000" xmlns="http://www.w3.org/2000/svg" xmlns:xlink="http://www.w3.org/1999/xlink" version="1.1" x="0px" y="0px" viewBox="0 0 100 100" enable-background="new 0 0 100 100" xml:space="preserve"><g><path fill-rule="evenodd" clip-rule="evenodd" fill="#000000" d="M56.541,87.337H12.21c-4.078,0-7.21-3.578-7.21-7.676V12.669   C5,8.571,8.132,5,12.21,5l0,0h43.316l17.328,18.99v11.133c-1.625-0.495-3.304-0.817-5.005-0.967v-7.005h-9.475   c-3.399,0-5.946-3.081-5.946-6.518v-10.63H12.21c-1.291,0-2.21,1.316-2.21,2.666v66.993c0,1.353,0.919,2.676,2.21,2.676h36.376   C53.968,86.406,56.541,87.337,56.541,87.337z M17.703,46.247h22.933c0.877,0,1.593-0.711,1.593-1.593   c0-0.876-0.716-1.589-1.593-1.589H17.703c-0.88,0-1.594,0.713-1.594,1.589C16.109,45.536,16.823,46.247,17.703,46.247   L17.703,46.247z M17.703,37.732h22.933c0.877,0,1.593-0.708,1.593-1.591c0-0.877-0.716-1.589-1.593-1.589H17.703   c-0.88,0-1.594,0.712-1.594,1.589C16.109,37.024,16.823,37.732,17.703,37.732L17.703,37.732z M17.703,29.282h22.933   c0.877,0,1.593-0.709,1.593-1.595c0-0.875-0.716-1.591-1.593-1.591H17.703c-0.88,0-1.594,0.716-1.594,1.591   C16.109,28.572,16.823,29.282,17.703,29.282L17.703,29.282z M75.614,79.485l12.146,13.74c1.505,1.703,4.138,1.867,5.849,0.353l0,0   c1.705-1.507,1.867-4.151,0.357-5.853L81.787,73.951c2.704-3.534,4.188-7.725,4.464-11.995c0.343-5.617-1.461-11.382-5.488-15.936   c-4.026-4.562-9.523-7.058-15.148-7.401c-5.617-0.348-11.387,1.455-15.94,5.485c-4.551,4.027-7.049,9.526-7.398,15.154   c-0.336,5.62,1.463,11.379,5.487,15.93l0.096,0.115l0,0v-0.015c4.026,4.5,9.472,6.958,15.055,7.311   C67.262,82.855,71.712,81.835,75.614,79.485L75.614,79.485z M54.11,49.108c-3.172,2.808-4.912,6.638-5.149,10.542   c-0.238,3.882,0.987,7.85,3.732,11.017l0,0l0,0l0.083,0.083c2.805,3.176,6.628,4.921,10.539,5.157   c3.887,0.24,7.853-0.985,10.994-3.735l0,0l0,0l0.101-0.083c3.184-2.794,4.912-6.622,5.149-10.539   c0.24-3.921-1.005-7.934-3.813-11.11c-2.796-3.15-6.62-4.883-10.531-5.127C61.286,45.066,57.281,46.319,54.11,49.108z"></path><path fill="#000000" d="M65.095,65.02h-1.568l-0.618-1.431l1.407-1.091l1.402,1.091L65.095,65.02z M64.315,49.724   c3.226,0,5.851,2.62,5.851,5.855c0,3.23-2.625,5.85-5.851,5.85c-3.235,0-5.853-2.62-5.853-5.85   C58.463,52.344,61.08,49.724,64.315,49.724z"></path><polygon fill="#000000" points="62.908,63.589 63.526,65.02 65.095,65.02 65.718,63.589 64.315,62.498  "></polygon><path fill="#000000" d="M72.486,63.16l-3.833-0.987l-2.966,8.156l-0.536-4.752h-1.669l-0.539,4.752l-2.971-8.156L56.14,63.16   c-1.187,0.304-2.229,1.316-2.229,2.542v3.388c2.441,3.056,6.191,5.021,10.404,5.021c4.214,0,7.964-1.966,10.404-5.024v-3.385   C74.72,64.476,73.675,63.464,72.486,63.16z M72.54,69.397h-3.877v-0.949h3.877V69.397z"></path><path fill="#000000" d="M64.315,61.43c3.226,0,5.851-2.62,5.851-5.85c0-3.235-2.625-5.855-5.851-5.855   c-3.235,0-5.853,2.62-5.853,5.855C58.463,58.81,61.08,61.43,64.315,61.43z"></path></g></svg>